<?xml version="1.0" encoding="UTF-8"?>
<svg width="1200pt" height="1200pt" version="1.1" viewBox="0 0 1200 1200" xmlns="http://www.w3.org/2000/svg">
 <path d="m331.82 875.32c4.2227 4.2227 9.7422 6.3242 15.266 6.3242 5.5195 0 11.051-2.1133 15.266-6.3242l240.45-240.38 240.46 240.38c4.2227 4.2227 9.7422 6.3242 15.277 6.3242 5.5195 0 11.051-2.1133 15.266-6.3242 8.4375-8.4375 8.4375-22.117 0-30.539l-240.43-240.38 240.45-240.38c8.4375-8.4258 8.4375-22.117 0-30.551-8.4375-8.4375-22.117-8.4375-30.551 0l-240.46 240.38-240.45-240.38c-8.4375-8.4375-22.105-8.4375-30.539 0-8.4375 8.4375-8.4375 22.129 0 30.551l240.45 240.38-240.45 240.38c-8.4375 8.4336-8.4375 22.102 0 30.539z" fill="current"/>
</svg>
