<?xml version="1.0" encoding="UTF-8"?>
<svg width="1200pt" height="1200pt" version="1.1" viewBox="0 0 1200 1200" xmlns="http://www.w3.org/2000/svg">
 <path d="m600 0c-330.71 0-600 269.29-600 600s269.29 600 600 600 600-269.29 600-600-269.29-600-600-600zm0 112.5c114.45 0 219.3 39.824 302.36 105.49l-684.38 684.38c-65.664-83.023-105.49-187.88-105.49-302.36 0-269.89 217.61-487.5 487.5-487.5zm382.05 185.18c65.664 83.023 105.49 187.88 105.49 302.36 0 269.89-217.61 487.5-487.5 487.5-114.45 0-219.3-39.824-302.36-105.49z"/>
</svg>
