<?xml version="1.0" encoding="UTF-8"?>
<svg width="1200pt" height="1200pt" version="1.1" viewBox="0 0 1200 1200" xmlns="http://www.w3.org/2000/svg">
 <path fill="var(--iconColor)" d="m1165.2 565.16c0-312.12-253.02-565.16-565.16-565.16-312.12 0-565.16 253.04-565.16 565.16 0 5.668 0.26172 11.273 0.41797 16.91-0.15625 5.9766-0.41797 11.906-0.41797 17.93 0 331.37 253.04 600 565.16 600 312.14 0 565.16-268.63 565.16-600 0-6.0234-0.26172-11.953-0.41797-17.93 0.15625-5.6367 0.41797-11.242 0.41797-16.91zm-565.16-373.38c198.33 0 360.02 166.08 368.62 374.34-8.625 196.18-170.32 352.58-368.62 352.58-198.29 0-360-156.42-368.61-352.58 8.6094-208.28 170.32-374.34 368.61-374.34zm0 927.17c-299.3 0-541.93-235.11-541.93-525.11 0-5.2344 0.24609-10.484 0.40234-15.684 8.5938 266.32 247.66 495.31 541.53 495.31s532.94-228.99 541.53-495.31c0.17188 5.2031 0.40234 10.453 0.40234 15.684 0 290-242.61 525.11-541.93 525.11zm0-244.12c179.39 0 324.84-139.52 324.84-311.61 0-172.09-145.44-311.61-324.84-311.61s-324.84 139.52-324.84 311.61c0 172.09 145.44 311.61 324.84 311.61z"/>
</svg>
