<?xml version="1.0" encoding="UTF-8"?>
<svg width="1200pt" height="1200pt" version="1.1" viewBox="0 0 1200 1200" xmlns="http://www.w3.org/2000/svg">
 <g>
  <path fill="var(--primary)" d="m600 1163c-150.48 0-291.84-58.559-398.16-164.88-106.32-106.32-164.88-247.68-164.88-398.16s58.559-291.84 164.88-398.16c106.32-106.32 247.68-164.88 398.16-164.88s291.84 58.559 398.16 164.88c106.32 106.32 164.88 247.68 164.88 398.16s-58.559 291.84-164.88 398.16c-106.32 106.32-247.68 164.88-398.16 164.88zm0-1090.1c-140.88 0-273.12 54.719-372.72 154.32-99.602 99.598-154.32 231.84-154.32 372.72s54.719 273.12 154.32 372.72c99.602 99.602 231.84 154.32 372.72 154.32s273.12-54.719 372.72-154.32c99.602-99.602 154.32-231.84 154.32-372.72s-54.719-273.12-154.32-372.72c-99.598-99.602-231.84-154.32-372.72-154.32z"/>
  <path fill="var(--primary)" d="m600 1012.8c-227.52 0-412.8-185.28-412.8-412.8s185.28-412.8 412.8-412.8 412.8 185.28 412.8 412.8-185.28 412.8-412.8 412.8zm0-789.6c-207.84 0-376.8 168.96-376.8 376.8s168.96 376.8 376.8 376.8 376.8-168.96 376.8-376.8-168.96-376.8-376.8-376.8z"/>
  <path fill="var(--primary)" d="m600 850.56c-54.961 0-99.359-44.641-99.359-99.359v-302.16c0-54.961 44.641-99.359 99.359-99.359s99.359 44.641 99.359 99.359v301.92c0 54.961-44.398 99.598-99.359 99.598zm0-465.12c-35.039 0-63.359 28.559-63.359 63.359v301.92c0 35.039 28.559 63.359 63.359 63.359s63.359-28.559 63.359-63.359v-301.68c0-35.039-28.32-63.598-63.359-63.598z"/>
 </g>
</svg>
