<?xml version="1.0" encoding="UTF-8"?>
<!-- Generator: visioncortex VTracer 0.6.3 -->
<svg version="1.1" xmlns="http://www.w3.org/2000/svg"  viewBox="0 0 100 100" preserveAspectRatio="xMidYMid meet" width="100%" height="auto">
<path d="M0 0 C3.31 1.75 3.31 1.75 6 4 C6.95 4.7 7.9 5.4 8.88 6.12 C9.93 7.05 9.93 7.05 11 8 C11 8.66 11 9.32 11 10 C14.34 11.11 17.11 11.21 20.62 11.38 C28.16 11.9 34.23 12.41 39.88 17.69 C44.06 24.21 46.04 30.21 45 38 C44.32 40.31 43.51 42.54 42.68 44.8 C41.57 48.4 41.62 51.24 42 55 C43.42 57.23 43.42 57.23 45 59 C45 60.32 45 61.64 45 63 C43.78 63.23 42.57 63.45 41.31 63.69 C38.1 64.87 37.18 65.64 35.6 68.74 C34.81 71.01 34.03 73.29 33.26 75.57 C30.38 83.4 26.04 89.39 18.41 92.97 C17.61 93.31 16.82 93.65 16 94 C15.24 94.39 14.47 94.78 13.68 95.18 C3.15 99.95 -10.82 99.72 -21.75 96.31 C-26.39 94.46 -31.19 92.29 -35 89 C-35 88.34 -35 87.68 -35 87 C-35.66 87 -36.32 87 -37 87 C-41.71 80.93 -47 72.99 -47 65 C-49.97 64.34 -52.94 63.68 -56 63 C-55 59 -55 59 -53.44 56.62 C-51.65 53.36 -51.57 51.69 -52 48 C-52.49 46.8 -52.99 45.61 -53.5 44.38 C-56.35 37.24 -55.91 29.65 -53.31 22.5 C-51.51 18.57 -49.89 16.12 -46 14 C-41.05 12.32 -36.78 11.96 -31.56 11.81 C-24.52 11.37 -21.02 8.71 -16 4 C-10.83 -0.29 -6.54 -1.07 0 0 Z M-7 26 C-7.38 26.76 -7.38 26.76 -7.78 27.54 C-11.11 33.52 -15.11 36.61 -21 40 C-20.47 43.09 -19.94 45.11 -18.38 47.88 C-16.63 51.83 -16.78 53.88 -18 58 C-20.56 60.44 -20.56 60.44 -23 62 C-22.22 62.56 -21.43 63.11 -20.62 63.69 C-17.91 66.08 -17.04 67.6 -16 71 C-15.26 70.24 -14.52 69.47 -13.75 68.69 C-9.19 64.23 -9.19 64.23 -7 63 C-2.61 63.11 -0.16 65.1 3 68 C3.33 68.66 3.66 69.32 4 70 C4.66 70 5.32 70 6 70 C7.39 68.04 8.72 66.04 10 64 C10.66 63.01 11.32 62.02 12 61 C10.73 60.04 10.73 60.04 9.44 59.06 C6.82 55.77 6.64 55.36 7 51.44 C7.61 47.84 8.69 45.84 11 43 C10.96 41 10.96 41 10 39 C8.03 37.43 8.03 37.43 5.62 36.12 C1.47 33.55 0.07 31.45 -2 27 C-4.58 26.03 -4.58 26.03 -7 26 Z " fill="var(--primary)" transform="translate(56,2)"/>
</svg>
