<svg width="1280" height="1003" viewBox="0 0 1280 1003" fill="none" xmlns="http://www.w3.org/2000/svg">
<ellipse cx="629.201" cy="160.21" rx="42.4213" ry="42.3998" fill="black"/>
<ellipse cx="478.875" cy="160.21" rx="42.4213" ry="42.3998" fill="black"/>
<ellipse cx="185.059" cy="184.966" rx="185.059" ry="184.966" fill="black"/>
<ellipse cx="185.345" cy="185.25" rx="134.666" ry="134.598" fill="#CCDE02"/>
<ellipse cx="227.765" cy="160.21" rx="42.4213" ry="42.3998" fill="black"/>
<path d="M737.22 15.8899H776.747V88.6737C786.379 76.1342 800.009 69.8644 817.637 69.8644C853.438 69.8644 871.339 91.3997 871.339 134.47V206.709H832.085V134.743C832.085 125.475 829.722 118.296 824.997 113.208C820.454 108.119 814.275 105.575 806.46 105.575C797.919 105.575 790.741 108.483 784.925 114.298C779.291 120.113 776.475 128.201 776.475 138.559V206.709H737.22V15.8899ZM909.89 39.606L949.145 35.2444V72.863H983.219V105.575H948.872V156.278C948.872 168.273 953.96 174.27 964.137 174.27C970.68 174.27 976.132 173.179 980.493 170.999L989.489 203.71C980.584 207.163 971.134 209.162 961.139 209.708C945.328 210.435 932.789 206.709 923.52 198.531C914.434 190.171 909.89 176.087 909.89 156.278V105.575H885.902V72.863H909.89V39.606ZM1079.16 174.27C1089.15 174.27 1097.15 171.089 1103.15 164.729C1109.15 158.186 1112.14 149.827 1112.14 139.65C1112.14 129.654 1109.15 121.386 1103.15 114.843C1097.33 108.301 1089.34 105.03 1079.16 105.03C1069.16 105.03 1060.62 107.847 1053.53 113.48C1046.45 119.114 1042.9 127.837 1042.9 139.65C1042.9 150.372 1046.54 158.822 1053.81 165.001C1061.08 171.18 1069.53 174.27 1079.16 174.27ZM1042.36 266.136H1002.83V72.3178H1038L1040.45 89.4915C1050.63 76.4068 1065.53 69.8644 1085.16 69.8644C1104.97 69.8644 1120.96 76.3159 1133.13 89.2189C1145.49 101.94 1151.67 118.75 1151.67 139.65C1151.67 161.094 1145.49 178.177 1133.13 190.898C1120.78 203.438 1104.6 209.708 1084.61 209.708C1066.8 209.708 1052.72 203.347 1042.36 190.626V266.136Z" fill="black"/>
<path d="M436.45 399.461H1248.28" stroke="black" stroke-width="14.3575"/>
<path d="M518.235 563.048H463.294C463.899 566.882 465.967 570.06 469.499 572.583C473.031 575.005 477.723 576.215 483.575 576.215C491.95 576.215 498.408 574.248 502.948 570.313L515.208 583.934C507.741 591.3 497.046 594.983 483.121 594.983C469.802 594.983 459.459 591.401 452.093 584.237C444.828 577.073 441.196 567.386 441.196 555.177C441.196 543.674 444.778 534.391 451.942 527.328C459.106 520.164 468.742 516.582 480.851 516.582C494.069 516.582 504.159 520.618 511.121 528.69C518.185 536.762 520.556 548.215 518.235 563.048ZM463.294 547.155H498.71C498.509 543.321 496.692 540.395 493.262 538.377C489.831 536.258 485.694 535.198 480.851 535.198C476.512 535.198 472.778 536.258 469.65 538.377C466.522 540.496 464.403 543.422 463.294 547.155ZM611.819 499.933L596.987 512.949C594.161 510.023 590.478 507.803 585.938 506.29C581.498 504.776 577.008 504.019 572.467 504.019C567.119 504.019 562.629 505.079 558.997 507.198C555.364 509.317 553.548 512.142 553.548 515.674C553.548 520.113 555.364 523.191 558.997 524.906C562.73 526.521 568.532 527.681 576.402 528.387C603.545 530.708 617.117 542.161 617.117 562.745C617.117 570.212 614.947 576.619 610.608 581.967C606.27 587.214 600.821 590.998 594.262 593.318C587.704 595.538 580.439 596.699 572.467 596.8C562.781 596.9 553.699 595.084 545.223 591.351C536.748 587.617 530.391 582.169 526.153 575.005L540.229 560.323C544.063 565.267 548.957 569.001 554.91 571.523C560.863 574.046 566.766 575.307 572.619 575.307C578.875 575.307 583.97 574.147 587.905 571.826C591.841 569.505 593.808 566.478 593.808 562.745C593.909 558.406 592.194 555.127 588.662 552.907C585.231 550.586 579.833 549.123 572.467 548.518C566.11 547.912 560.662 547.054 556.121 545.945C551.681 544.835 547.342 543.119 543.104 540.798C538.867 538.478 535.638 535.249 533.418 531.112C531.299 526.874 530.29 521.778 530.391 515.825C530.492 505.735 534.578 497.864 542.65 492.214C550.824 486.462 560.712 483.587 572.316 483.587C580.993 483.587 588.41 484.797 594.565 487.219C600.821 489.641 606.572 493.879 611.819 499.933ZM672.424 575.307C677.973 575.307 682.413 573.541 685.743 570.01C689.073 566.377 690.737 561.736 690.737 556.085C690.737 550.536 689.073 545.945 685.743 542.312C682.514 538.68 678.074 536.863 672.424 536.863C666.874 536.863 662.132 538.427 658.196 541.555C654.261 544.683 652.293 549.527 652.293 556.085C652.293 562.039 654.312 566.73 658.348 570.161C662.384 573.592 667.076 575.307 672.424 575.307ZM651.991 626.314H630.044V518.701H649.569L650.931 528.236C656.582 520.971 664.856 517.339 675.753 517.339C686.752 517.339 695.631 520.921 702.392 528.085C709.253 535.148 712.684 544.481 712.684 556.085C712.684 567.992 709.253 577.477 702.392 584.54C695.53 591.502 686.55 594.983 675.451 594.983C665.562 594.983 657.742 591.452 651.991 584.388V626.314ZM763.334 594.983C750.923 594.983 740.984 591.401 733.517 584.237C726.152 576.972 722.469 567.588 722.469 556.085C722.469 544.683 726.202 535.299 733.669 527.933C741.236 520.567 751.125 516.885 763.334 516.885C775.644 516.885 785.533 520.567 793 527.933C800.567 535.299 804.351 544.683 804.351 556.085C804.351 567.588 800.618 576.972 793.151 584.237C785.785 591.401 775.846 594.983 763.334 594.983ZM763.334 575.61C769.59 575.61 774.282 573.743 777.41 570.01C780.639 566.176 782.253 561.534 782.253 556.085C782.253 550.838 780.639 546.247 777.41 542.312C774.181 538.377 769.489 536.409 763.334 536.409C757.28 536.409 752.639 538.377 749.41 542.312C746.181 546.247 744.566 550.838 744.566 556.085C744.566 561.332 746.13 565.923 749.258 569.858C752.487 573.693 757.179 575.61 763.334 575.61ZM818.498 518.701H838.779L840.444 526.874C845.187 520.214 851.846 516.885 860.423 516.885C867.486 516.885 873.591 519.155 878.737 523.695L869.656 540.95C866.124 538.427 862.138 537.166 857.699 537.166C852.755 537.166 848.618 538.73 845.288 541.858C841.958 544.885 840.293 549.073 840.293 554.42V593.318H818.498V518.701ZM895.099 500.538L916.894 498.117V519.003H935.813V537.166H916.742V565.318C916.742 571.977 919.568 575.307 925.218 575.307C928.851 575.307 931.878 574.702 934.299 573.491L939.294 591.653C934.35 593.571 929.103 594.681 923.553 594.983C914.775 595.387 907.812 593.318 902.666 588.778C897.621 584.136 895.099 576.316 895.099 565.318V537.166H881.779V519.003H895.099V500.538Z" fill="black"/>
<path d="M530.798 798.549L523.078 780.386H468.742L461.023 798.549H435.596L483.121 692.601H508.851L556.376 798.549H530.798ZM514.149 759.499L495.986 716.515L477.672 759.499H514.149ZM565.009 692.752H586.804V753.143L608.902 723.931H634.632V725.293L607.237 759.045L638.87 796.884V798.549H612.686L586.804 765.705V798.549H565.009V692.752ZM700.999 732.407L701.756 723.78H722.188V798.549H702.512L701.301 789.165C698.981 792.797 695.6 795.522 691.161 797.338C686.822 799.154 682.534 800.113 678.296 800.214C666.894 800.315 657.611 796.884 650.446 789.922C643.282 782.858 639.7 773.273 639.7 761.164C639.7 749.056 643.383 739.47 650.749 732.407C658.216 725.344 667.6 721.913 678.901 722.115C683.744 722.115 688.134 723.023 692.069 724.839C696.105 726.656 699.082 729.178 700.999 732.407ZM681.171 741.337C675.521 741.337 670.829 743.153 667.095 746.786C663.362 750.317 661.495 755.11 661.495 761.164C661.495 767.219 663.362 772.011 667.095 775.543C670.829 779.075 675.521 780.84 681.171 780.84C687.024 780.84 691.766 778.923 695.399 775.089C699.132 771.255 700.999 766.865 700.999 761.921C700.999 756.17 699.233 751.326 695.701 747.391C692.271 743.355 687.427 741.337 681.171 741.337ZM776.626 741.942C771.077 741.942 766.637 743.759 763.307 747.391C759.977 750.923 758.312 755.514 758.312 761.164C758.312 766.714 759.927 771.305 763.156 774.938C766.485 778.57 770.976 780.386 776.626 780.386C782.176 780.386 786.918 778.822 790.853 775.694C794.789 772.566 796.756 767.723 796.756 761.164C796.756 755.211 794.738 750.519 790.702 747.088C786.666 743.658 781.974 741.942 776.626 741.942ZM797.059 692.752H819.005V798.549H799.481L798.118 789.014C792.468 796.279 784.194 799.911 773.296 799.911C762.298 799.911 753.368 796.379 746.507 789.316C739.746 782.152 736.366 772.768 736.366 761.164C736.366 749.258 739.797 739.823 746.658 732.861C753.519 725.798 762.5 722.266 773.599 722.266C783.488 722.266 791.308 725.798 797.059 732.861V692.752ZM910.219 768.278H855.277C855.882 772.112 857.951 775.291 861.483 777.813C865.014 780.235 869.706 781.446 875.559 781.446C883.933 781.446 890.391 779.478 894.932 775.543L907.192 789.165C899.725 796.531 889.029 800.214 875.104 800.214C861.785 800.214 851.443 796.632 844.077 789.468C836.812 782.303 833.179 772.617 833.179 760.408C833.179 748.905 836.761 739.622 843.926 732.558C851.09 725.394 860.726 721.812 872.834 721.812C886.052 721.812 896.143 725.848 903.105 733.921C910.168 741.993 912.539 753.445 910.219 768.278ZM855.277 752.386H890.694C890.492 748.552 888.676 745.625 885.245 743.607C881.815 741.488 877.677 740.429 872.834 740.429C868.495 740.429 864.762 741.488 861.634 743.607C858.506 745.726 856.387 748.652 855.277 752.386ZM994.394 798.549H972.902V758.44C972.902 747.542 968.613 742.094 960.037 742.094C955.9 742.094 952.62 743.708 950.199 746.937C947.777 750.166 946.566 754.051 946.566 758.591V798.549H924.771V723.78H943.842L945.355 732.256C949.19 725.495 955.748 722.115 965.031 722.115C975.424 722.115 982.689 726.757 986.826 736.04C990.156 730.994 993.738 727.412 997.572 725.293C1001.41 723.074 1006.1 721.964 1011.65 721.964C1020.53 721.964 1027.69 724.688 1033.14 730.137C1038.69 735.586 1041.47 744.768 1041.47 757.683V798.549H1019.52V758.137C1019.52 747.744 1015.73 742.548 1008.17 742.548C1004.03 742.548 1000.7 744.112 998.178 747.24C995.655 750.267 994.394 754 994.394 758.44V798.549ZM1080.63 723.629V798.549H1058.83V723.629H1080.63ZM1057.32 703.952C1057.32 707.787 1058.58 710.814 1061.1 713.034C1063.73 715.254 1066.6 716.364 1069.73 716.364C1072.86 716.364 1075.68 715.254 1078.21 713.034C1080.83 710.814 1082.14 707.787 1082.14 703.952C1082.14 700.118 1080.83 697.091 1078.21 694.871C1075.68 692.651 1072.86 691.541 1069.73 691.541C1066.6 691.541 1063.73 692.651 1061.1 694.871C1058.58 697.091 1057.32 700.118 1057.32 703.952ZM1171.84 768.278H1116.9C1117.5 772.112 1119.57 775.291 1123.1 777.813C1126.63 780.235 1131.32 781.446 1137.18 781.446C1145.55 781.446 1152.01 779.478 1156.55 775.543L1168.81 789.165C1161.34 796.531 1150.65 800.214 1136.72 800.214C1123.4 800.214 1113.06 796.632 1105.69 789.468C1098.43 782.303 1094.8 772.617 1094.8 760.408C1094.8 748.905 1098.38 739.622 1105.54 732.558C1112.71 725.394 1122.34 721.812 1134.45 721.812C1147.67 721.812 1157.76 725.848 1164.72 733.921C1171.79 741.993 1174.16 753.445 1171.84 768.278ZM1116.9 752.386H1152.31C1152.11 748.552 1150.29 745.625 1146.86 743.607C1143.43 741.488 1139.3 740.429 1134.45 740.429C1130.11 740.429 1126.38 741.488 1123.25 743.607C1120.12 745.726 1118 748.652 1116.9 752.386Z" fill="black"/>
<path d="M536.495 1000.97H525.9V954.053H461.726V1000.97H451.132V895.025H461.726V944.064H525.9V895.025H536.495V1000.97ZM624.14 941.036V926.204H633.675V1000.97H624.291V986.14C621.163 991.488 616.875 995.574 611.426 998.4C606.078 1001.12 600.478 1002.49 594.626 1002.49C583.728 1002.49 574.647 998.904 567.382 991.74C560.117 984.576 556.485 975.192 556.485 963.588C556.485 952.085 560.117 942.802 567.382 935.739C574.748 928.676 583.88 925.144 594.777 925.144C600.831 925.144 606.532 926.557 611.88 929.382C617.329 932.107 621.416 935.991 624.14 941.036ZM595.08 934.377C587.008 934.377 580.247 937.101 574.799 942.55C569.35 947.999 566.625 955.011 566.625 963.588C566.625 972.266 569.35 979.329 574.799 984.778C580.247 990.227 587.008 992.951 595.08 992.951C600.327 992.951 605.019 991.891 609.156 989.772C613.394 987.553 616.572 984.727 618.691 981.297C620.81 977.866 622.374 974.082 623.383 969.945C624.392 965.808 624.392 961.671 623.383 957.534C622.374 953.296 620.81 949.462 618.691 946.031C616.572 942.6 613.394 939.826 609.156 937.707C605.019 935.487 600.327 934.377 595.08 934.377ZM726.575 1000.97H716.283V959.048C716.283 951.177 714.113 945.123 709.774 940.885C705.436 936.647 699.482 934.528 691.915 934.528C684.751 934.629 678.848 937.152 674.206 942.096C669.666 946.939 667.395 952.993 667.395 960.258V1000.97H657.255V926.204H666.941L667.244 938.766C673.197 929.584 681.875 924.993 693.277 924.993C703.266 924.993 711.288 927.919 717.342 933.771C723.497 939.624 726.575 947.999 726.575 958.896V1000.97ZM818.658 1000.97H808.366V959.048C808.366 951.177 806.197 945.123 801.858 940.885C797.519 936.647 791.566 934.528 783.998 934.528C776.834 934.629 770.931 937.152 766.29 942.096C761.749 946.939 759.479 952.993 759.479 960.258V1000.97H749.338V926.204H759.025L759.328 938.766C765.281 929.584 773.958 924.993 785.36 924.993C795.35 924.993 803.372 927.919 809.426 933.771C815.581 939.624 818.658 947.999 818.658 958.896V1000.97ZM875.022 924.842C886.021 924.842 895.153 928.474 902.418 935.739C909.783 943.004 913.466 952.338 913.466 963.74C913.466 975.242 909.834 984.526 902.569 991.589C895.405 998.652 886.223 1002.18 875.022 1002.18C863.923 1002.18 854.741 998.652 847.476 991.589C840.211 984.425 836.578 975.142 836.578 963.74C836.578 952.237 840.161 942.903 847.325 935.739C854.489 928.474 863.721 924.842 875.022 924.842ZM895.304 942.399C890.057 936.849 883.296 934.074 875.022 934.074C866.748 934.074 859.937 936.849 854.59 942.399C849.343 947.948 846.719 955.062 846.719 963.74C846.719 972.417 849.343 979.43 854.59 984.778C859.937 990.025 866.748 992.648 875.022 992.648C883.498 992.648 890.309 990.025 895.455 984.778C900.702 979.43 903.326 972.417 903.326 963.74C903.326 955.062 900.652 947.948 895.304 942.399ZM984.629 926.204H995.829L964.347 1001.12H953.147L921.666 926.204H932.866L958.747 989.924L984.629 926.204ZM1079.57 967.826H1014.49C1015.19 975.495 1018.17 981.549 1023.42 985.989C1028.76 990.428 1035.22 992.648 1042.79 992.648C1047.53 992.648 1052.28 991.74 1057.02 989.924C1061.86 988.108 1065.54 985.585 1068.07 982.356L1074.88 988.41C1071.35 992.85 1066.65 996.281 1060.8 998.702C1054.95 1001.12 1048.95 1002.33 1042.79 1002.33C1031.49 1002.33 1022.21 998.803 1014.94 991.74C1007.68 984.677 1004.04 975.242 1004.04 963.437C1004.04 952.237 1007.63 943.004 1014.79 935.739C1022.05 928.474 1031.24 924.842 1042.34 924.842C1054.24 924.842 1063.78 928.524 1070.94 935.89C1078.11 943.155 1080.98 953.801 1079.57 967.826ZM1014.49 959.199H1070.03C1069.93 951.329 1067.26 945.173 1062.01 940.734C1056.77 936.193 1050.26 933.923 1042.49 933.923C1034.92 933.923 1028.61 936.143 1023.57 940.582C1018.52 945.022 1015.5 951.228 1014.49 959.199ZM1097.57 926.204H1107.11L1107.71 938.463C1109.93 933.822 1113.21 930.442 1117.55 928.323C1121.89 926.103 1126.53 924.993 1131.47 924.993C1137.73 924.993 1143.38 926.759 1148.43 930.29L1143.73 938.766C1139.9 936.143 1135.61 934.831 1130.87 934.831C1124.31 934.932 1118.81 937.202 1114.37 941.642C1109.93 946.082 1107.71 951.682 1107.71 958.442V1000.97H1097.57V926.204Z" fill="black"/>
</svg>
