<svg width="2000" height="2000" viewBox="0 0 2000 2000" fill="none" xmlns="http://www.w3.org/2000/svg">
<rect width="2000" height="2000" fill="#C8E4FA"/>
<ellipse cx="989.201" cy="660.21" rx="42.4213" ry="42.3998" fill="black"/>
<ellipse cx="838.875" cy="660.21" rx="42.4213" ry="42.3998" fill="black"/>
<ellipse cx="545.059" cy="684.966" rx="185.059" ry="184.966" fill="black"/>
<ellipse cx="545.345" cy="685.25" rx="134.666" ry="134.598" fill="#CCDE02"/>
<ellipse cx="587.765" cy="660.21" rx="42.4213" ry="42.3998" fill="black"/>
<path d="M1097.22 515.89H1136.75V588.674C1146.38 576.134 1160.01 569.864 1177.64 569.864C1213.44 569.864 1231.34 591.4 1231.34 634.47V706.709H1192.08V634.743C1192.08 625.475 1189.72 618.296 1185 613.208C1180.45 608.119 1174.27 605.575 1166.46 605.575C1157.92 605.575 1150.74 608.483 1144.93 614.298C1139.29 620.113 1136.47 628.201 1136.47 638.559V706.709H1097.22V515.89ZM1269.89 539.606L1309.14 535.244V572.863H1343.22V605.575H1308.87V656.278C1308.87 668.273 1313.96 674.27 1324.14 674.27C1330.68 674.27 1336.13 673.179 1340.49 670.999L1349.49 703.71C1340.58 707.163 1331.13 709.162 1321.14 709.708C1305.33 710.435 1292.79 706.709 1283.52 698.531C1274.43 690.171 1269.89 676.087 1269.89 656.278V605.575H1245.9V572.863H1269.89V539.606ZM1439.16 674.27C1449.15 674.27 1457.15 671.089 1463.15 664.729C1469.15 658.186 1472.14 649.827 1472.14 639.65C1472.14 629.654 1469.15 621.386 1463.15 614.843C1457.33 608.301 1449.34 605.03 1439.16 605.03C1429.16 605.03 1420.62 607.847 1413.53 613.48C1406.45 619.114 1402.9 627.837 1402.9 639.65C1402.9 650.372 1406.54 658.822 1413.81 665.001C1421.08 671.18 1429.53 674.27 1439.16 674.27ZM1402.36 766.136H1362.83V572.318H1398L1400.45 589.492C1410.63 576.407 1425.53 569.864 1445.16 569.864C1464.97 569.864 1480.96 576.316 1493.13 589.219C1505.49 601.94 1511.67 618.75 1511.67 639.65C1511.67 661.094 1505.49 678.177 1493.13 690.898C1480.78 703.438 1464.6 709.708 1444.61 709.708C1426.8 709.708 1412.72 703.347 1402.36 690.626V766.136Z" fill="black"/>
<path d="M796.45 899.461H1608.28" stroke="black" stroke-width="14.3575"/>
<path d="M878.235 1063.05H823.294C823.899 1066.88 825.967 1070.06 829.499 1072.58C833.031 1075 837.723 1076.22 843.575 1076.22C851.95 1076.22 858.408 1074.25 862.948 1070.31L875.208 1083.93C867.741 1091.3 857.046 1094.98 843.121 1094.98C829.802 1094.98 819.459 1091.4 812.093 1084.24C804.828 1077.07 801.196 1067.39 801.196 1055.18C801.196 1043.67 804.778 1034.39 811.942 1027.33C819.106 1020.16 828.742 1016.58 840.851 1016.58C854.069 1016.58 864.159 1020.62 871.121 1028.69C878.185 1036.76 880.556 1048.21 878.235 1063.05ZM823.294 1047.16H858.71C858.509 1043.32 856.692 1040.39 853.262 1038.38C849.831 1036.26 845.694 1035.2 840.851 1035.2C836.512 1035.2 832.778 1036.26 829.65 1038.38C826.522 1040.5 824.403 1043.42 823.294 1047.16ZM971.819 999.933L956.987 1012.95C954.161 1010.02 950.478 1007.8 945.938 1006.29C941.498 1004.78 937.008 1004.02 932.467 1004.02C927.119 1004.02 922.629 1005.08 918.997 1007.2C915.364 1009.32 913.548 1012.14 913.548 1015.67C913.548 1020.11 915.364 1023.19 918.997 1024.91C922.73 1026.52 928.532 1027.68 936.402 1028.39C963.545 1030.71 977.117 1042.16 977.117 1062.74C977.117 1070.21 974.947 1076.62 970.608 1081.97C966.27 1087.21 960.821 1091 954.262 1093.32C947.704 1095.54 940.439 1096.7 932.467 1096.8C922.781 1096.9 913.699 1095.08 905.223 1091.35C896.748 1087.62 890.391 1082.17 886.153 1075L900.229 1060.32C904.063 1065.27 908.957 1069 914.91 1071.52C920.863 1074.05 926.766 1075.31 932.619 1075.31C938.875 1075.31 943.97 1074.15 947.905 1071.83C951.841 1069.51 953.808 1066.48 953.808 1062.74C953.909 1058.41 952.194 1055.13 948.662 1052.91C945.231 1050.59 939.833 1049.12 932.467 1048.52C926.11 1047.91 920.662 1047.05 916.121 1045.94C911.681 1044.83 907.342 1043.12 903.104 1040.8C898.867 1038.48 895.638 1035.25 893.418 1031.11C891.299 1026.87 890.29 1021.78 890.391 1015.83C890.492 1005.73 894.578 997.864 902.65 992.214C910.824 986.462 920.712 983.587 932.316 983.587C940.993 983.587 948.41 984.797 954.565 987.219C960.821 989.641 966.572 993.879 971.819 999.933ZM1032.42 1075.31C1037.97 1075.31 1042.41 1073.54 1045.74 1070.01C1049.07 1066.38 1050.74 1061.74 1050.74 1056.09C1050.74 1050.54 1049.07 1045.94 1045.74 1042.31C1042.51 1038.68 1038.07 1036.86 1032.42 1036.86C1026.87 1036.86 1022.13 1038.43 1018.2 1041.56C1014.26 1044.68 1012.29 1049.53 1012.29 1056.09C1012.29 1062.04 1014.31 1066.73 1018.35 1070.16C1022.38 1073.59 1027.08 1075.31 1032.42 1075.31ZM1011.99 1126.31H990.044V1018.7H1009.57L1010.93 1028.24C1016.58 1020.97 1024.86 1017.34 1035.75 1017.34C1046.75 1017.34 1055.63 1020.92 1062.39 1028.08C1069.25 1035.15 1072.68 1044.48 1072.68 1056.09C1072.68 1067.99 1069.25 1077.48 1062.39 1084.54C1055.53 1091.5 1046.55 1094.98 1035.45 1094.98C1025.56 1094.98 1017.74 1091.45 1011.99 1084.39V1126.31ZM1123.33 1094.98C1110.92 1094.98 1100.98 1091.4 1093.52 1084.24C1086.15 1076.97 1082.47 1067.59 1082.47 1056.09C1082.47 1044.68 1086.2 1035.3 1093.67 1027.93C1101.24 1020.57 1111.12 1016.88 1123.33 1016.88C1135.64 1016.88 1145.53 1020.57 1153 1027.93C1160.57 1035.3 1164.35 1044.68 1164.35 1056.09C1164.35 1067.59 1160.62 1076.97 1153.15 1084.24C1145.79 1091.4 1135.85 1094.98 1123.33 1094.98ZM1123.33 1075.61C1129.59 1075.61 1134.28 1073.74 1137.41 1070.01C1140.64 1066.18 1142.25 1061.53 1142.25 1056.09C1142.25 1050.84 1140.64 1046.25 1137.41 1042.31C1134.18 1038.38 1129.49 1036.41 1123.33 1036.41C1117.28 1036.41 1112.64 1038.38 1109.41 1042.31C1106.18 1046.25 1104.57 1050.84 1104.57 1056.09C1104.57 1061.33 1106.13 1065.92 1109.26 1069.86C1112.49 1073.69 1117.18 1075.61 1123.33 1075.61ZM1178.5 1018.7H1198.78L1200.44 1026.87C1205.19 1020.21 1211.85 1016.88 1220.42 1016.88C1227.49 1016.88 1233.59 1019.15 1238.74 1023.7L1229.66 1040.95C1226.12 1038.43 1222.14 1037.17 1217.7 1037.17C1212.75 1037.17 1208.62 1038.73 1205.29 1041.86C1201.96 1044.89 1200.29 1049.07 1200.29 1054.42V1093.32H1178.5V1018.7ZM1255.1 1000.54L1276.89 998.117V1019H1295.81V1037.17H1276.74V1065.32C1276.74 1071.98 1279.57 1075.31 1285.22 1075.31C1288.85 1075.31 1291.88 1074.7 1294.3 1073.49L1299.29 1091.65C1294.35 1093.57 1289.1 1094.68 1283.55 1094.98C1274.77 1095.39 1267.81 1093.32 1262.67 1088.78C1257.62 1084.14 1255.1 1076.32 1255.1 1065.32V1037.17H1241.78V1019H1255.1V1000.54Z" fill="black"/>
<path d="M890.798 1298.55L883.078 1280.39H828.742L821.023 1298.55H795.596L843.121 1192.6H868.851L916.376 1298.55H890.798ZM874.149 1259.5L855.986 1216.51L837.672 1259.5H874.149ZM925.009 1192.75H946.804V1253.14L968.902 1223.93H994.632V1225.29L967.237 1259.05L998.87 1296.88V1298.55H972.686L946.804 1265.7V1298.55H925.009V1192.75ZM1061 1232.41L1061.76 1223.78H1082.19V1298.55H1062.51L1061.3 1289.16C1058.98 1292.8 1055.6 1295.52 1051.16 1297.34C1046.82 1299.15 1042.53 1300.11 1038.3 1300.21C1026.89 1300.31 1017.61 1296.88 1010.45 1289.92C1003.28 1282.86 999.7 1273.27 999.7 1261.16C999.7 1249.06 1003.38 1239.47 1010.75 1232.41C1018.22 1225.34 1027.6 1221.91 1038.9 1222.11C1043.74 1222.11 1048.13 1223.02 1052.07 1224.84C1056.1 1226.66 1059.08 1229.18 1061 1232.41ZM1041.17 1241.34C1035.52 1241.34 1030.83 1243.15 1027.1 1246.79C1023.36 1250.32 1021.5 1255.11 1021.5 1261.16C1021.5 1267.22 1023.36 1272.01 1027.1 1275.54C1030.83 1279.07 1035.52 1280.84 1041.17 1280.84C1047.02 1280.84 1051.77 1278.92 1055.4 1275.09C1059.13 1271.25 1061 1266.87 1061 1261.92C1061 1256.17 1059.23 1251.33 1055.7 1247.39C1052.27 1243.36 1047.43 1241.34 1041.17 1241.34ZM1136.63 1241.94C1131.08 1241.94 1126.64 1243.76 1123.31 1247.39C1119.98 1250.92 1118.31 1255.51 1118.31 1261.16C1118.31 1266.71 1119.93 1271.31 1123.16 1274.94C1126.49 1278.57 1130.98 1280.39 1136.63 1280.39C1142.18 1280.39 1146.92 1278.82 1150.85 1275.69C1154.79 1272.57 1156.76 1267.72 1156.76 1261.16C1156.76 1255.21 1154.74 1250.52 1150.7 1247.09C1146.67 1243.66 1141.97 1241.94 1136.63 1241.94ZM1157.06 1192.75H1179.01V1298.55H1159.48L1158.12 1289.01C1152.47 1296.28 1144.19 1299.91 1133.3 1299.91C1122.3 1299.91 1113.37 1296.38 1106.51 1289.32C1099.75 1282.15 1096.37 1272.77 1096.37 1261.16C1096.37 1249.26 1099.8 1239.82 1106.66 1232.86C1113.52 1225.8 1122.5 1222.27 1133.6 1222.27C1143.49 1222.27 1151.31 1225.8 1157.06 1232.86V1192.75ZM1270.22 1268.28H1215.28C1215.88 1272.11 1217.95 1275.29 1221.48 1277.81C1225.01 1280.23 1229.71 1281.45 1235.56 1281.45C1243.93 1281.45 1250.39 1279.48 1254.93 1275.54L1267.19 1289.16C1259.72 1296.53 1249.03 1300.21 1235.1 1300.21C1221.79 1300.21 1211.44 1296.63 1204.08 1289.47C1196.81 1282.3 1193.18 1272.62 1193.18 1260.41C1193.18 1248.9 1196.76 1239.62 1203.93 1232.56C1211.09 1225.39 1220.73 1221.81 1232.83 1221.81C1246.05 1221.81 1256.14 1225.85 1263.1 1233.92C1270.17 1241.99 1272.54 1253.45 1270.22 1268.28ZM1215.28 1252.39H1250.69C1250.49 1248.55 1248.68 1245.63 1245.25 1243.61C1241.81 1241.49 1237.68 1240.43 1232.83 1240.43C1228.5 1240.43 1224.76 1241.49 1221.63 1243.61C1218.51 1245.73 1216.39 1248.65 1215.28 1252.39ZM1354.39 1298.55H1332.9V1258.44C1332.9 1247.54 1328.61 1242.09 1320.04 1242.09C1315.9 1242.09 1312.62 1243.71 1310.2 1246.94C1307.78 1250.17 1306.57 1254.05 1306.57 1258.59V1298.55H1284.77V1223.78H1303.84L1305.36 1232.26C1309.19 1225.5 1315.75 1222.11 1325.03 1222.11C1335.42 1222.11 1342.69 1226.76 1346.83 1236.04C1350.16 1230.99 1353.74 1227.41 1357.57 1225.29C1361.41 1223.07 1366.1 1221.96 1371.65 1221.96C1380.53 1221.96 1387.69 1224.69 1393.14 1230.14C1398.69 1235.59 1401.47 1244.77 1401.47 1257.68V1298.55H1379.52V1258.14C1379.52 1247.74 1375.73 1242.55 1368.17 1242.55C1364.03 1242.55 1360.7 1244.11 1358.18 1247.24C1355.66 1250.27 1354.39 1254 1354.39 1258.44V1298.55ZM1440.63 1223.63V1298.55H1418.83V1223.63H1440.63ZM1417.32 1203.95C1417.32 1207.79 1418.58 1210.81 1421.1 1213.03C1423.73 1215.25 1426.6 1216.36 1429.73 1216.36C1432.86 1216.36 1435.68 1215.25 1438.21 1213.03C1440.83 1210.81 1442.14 1207.79 1442.14 1203.95C1442.14 1200.12 1440.83 1197.09 1438.21 1194.87C1435.68 1192.65 1432.86 1191.54 1429.73 1191.54C1426.6 1191.54 1423.73 1192.65 1421.1 1194.87C1418.58 1197.09 1417.32 1200.12 1417.32 1203.95ZM1531.84 1268.28H1476.9C1477.5 1272.11 1479.57 1275.29 1483.1 1277.81C1486.63 1280.23 1491.32 1281.45 1497.18 1281.45C1505.55 1281.45 1512.01 1279.48 1516.55 1275.54L1528.81 1289.16C1521.34 1296.53 1510.65 1300.21 1496.72 1300.21C1483.4 1300.21 1473.06 1296.63 1465.69 1289.47C1458.43 1282.3 1454.8 1272.62 1454.8 1260.41C1454.8 1248.9 1458.38 1239.62 1465.54 1232.56C1472.71 1225.39 1482.34 1221.81 1494.45 1221.81C1507.67 1221.81 1517.76 1225.85 1524.72 1233.92C1531.79 1241.99 1534.16 1253.45 1531.84 1268.28ZM1476.9 1252.39H1512.31C1512.11 1248.55 1510.29 1245.63 1506.86 1243.61C1503.43 1241.49 1499.3 1240.43 1494.45 1240.43C1490.11 1240.43 1486.38 1241.49 1483.25 1243.61C1480.12 1245.73 1478 1248.65 1476.9 1252.39Z" fill="black"/>
<path d="M896.495 1500.97H885.9V1454.05H821.726V1500.97H811.132V1395.02H821.726V1444.06H885.9V1395.02H896.495V1500.97ZM984.14 1441.04V1426.2H993.675V1500.97H984.291V1486.14C981.163 1491.49 976.875 1495.57 971.426 1498.4C966.078 1501.12 960.478 1502.49 954.626 1502.49C943.728 1502.49 934.647 1498.9 927.382 1491.74C920.117 1484.58 916.485 1475.19 916.485 1463.59C916.485 1452.09 920.117 1442.8 927.382 1435.74C934.748 1428.68 943.88 1425.14 954.777 1425.14C960.831 1425.14 966.532 1426.56 971.88 1429.38C977.329 1432.11 981.416 1435.99 984.14 1441.04ZM955.08 1434.38C947.008 1434.38 940.247 1437.1 934.799 1442.55C929.35 1448 926.625 1455.01 926.625 1463.59C926.625 1472.27 929.35 1479.33 934.799 1484.78C940.247 1490.23 947.008 1492.95 955.08 1492.95C960.327 1492.95 965.019 1491.89 969.156 1489.77C973.394 1487.55 976.572 1484.73 978.691 1481.3C980.81 1477.87 982.374 1474.08 983.383 1469.95C984.392 1465.81 984.392 1461.67 983.383 1457.53C982.374 1453.3 980.81 1449.46 978.691 1446.03C976.572 1442.6 973.394 1439.83 969.156 1437.71C965.019 1435.49 960.327 1434.38 955.08 1434.38ZM1086.57 1500.97H1076.28V1459.05C1076.28 1451.18 1074.11 1445.12 1069.77 1440.89C1065.44 1436.65 1059.48 1434.53 1051.91 1434.53C1044.75 1434.63 1038.85 1437.15 1034.21 1442.1C1029.67 1446.94 1027.4 1452.99 1027.4 1460.26V1500.97H1017.25V1426.2H1026.94L1027.24 1438.77C1033.2 1429.58 1041.87 1424.99 1053.28 1424.99C1063.27 1424.99 1071.29 1427.92 1077.34 1433.77C1083.5 1439.62 1086.57 1448 1086.57 1458.9V1500.97ZM1178.66 1500.97H1168.37V1459.05C1168.37 1451.18 1166.2 1445.12 1161.86 1440.89C1157.52 1436.65 1151.57 1434.53 1144 1434.53C1136.83 1434.63 1130.93 1437.15 1126.29 1442.1C1121.75 1446.94 1119.48 1452.99 1119.48 1460.26V1500.97H1109.34V1426.2H1119.02L1119.33 1438.77C1125.28 1429.58 1133.96 1424.99 1145.36 1424.99C1155.35 1424.99 1163.37 1427.92 1169.43 1433.77C1175.58 1439.62 1178.66 1448 1178.66 1458.9V1500.97ZM1235.02 1424.84C1246.02 1424.84 1255.15 1428.47 1262.42 1435.74C1269.78 1443 1273.47 1452.34 1273.47 1463.74C1273.47 1475.24 1269.83 1484.53 1262.57 1491.59C1255.4 1498.65 1246.22 1502.18 1235.02 1502.18C1223.92 1502.18 1214.74 1498.65 1207.48 1491.59C1200.21 1484.42 1196.58 1475.14 1196.58 1463.74C1196.58 1452.24 1200.16 1442.9 1207.32 1435.74C1214.49 1428.47 1223.72 1424.84 1235.02 1424.84ZM1255.3 1442.4C1250.06 1436.85 1243.3 1434.07 1235.02 1434.07C1226.75 1434.07 1219.94 1436.85 1214.59 1442.4C1209.34 1447.95 1206.72 1455.06 1206.72 1463.74C1206.72 1472.42 1209.34 1479.43 1214.59 1484.78C1219.94 1490.02 1226.75 1492.65 1235.02 1492.65C1243.5 1492.65 1250.31 1490.02 1255.46 1484.78C1260.7 1479.43 1263.33 1472.42 1263.33 1463.74C1263.33 1455.06 1260.65 1447.95 1255.3 1442.4ZM1344.63 1426.2H1355.83L1324.35 1501.12H1313.15L1281.67 1426.2H1292.87L1318.75 1489.92L1344.63 1426.2ZM1439.57 1467.83H1374.49C1375.19 1475.49 1378.17 1481.55 1383.42 1485.99C1388.76 1490.43 1395.22 1492.65 1402.79 1492.65C1407.53 1492.65 1412.28 1491.74 1417.02 1489.92C1421.86 1488.11 1425.54 1485.58 1428.07 1482.36L1434.88 1488.41C1431.35 1492.85 1426.65 1496.28 1420.8 1498.7C1414.95 1501.12 1408.95 1502.33 1402.79 1502.33C1391.49 1502.33 1382.21 1498.8 1374.94 1491.74C1367.68 1484.68 1364.04 1475.24 1364.04 1463.44C1364.04 1452.24 1367.63 1443 1374.79 1435.74C1382.05 1428.47 1391.24 1424.84 1402.34 1424.84C1414.24 1424.84 1423.78 1428.52 1430.94 1435.89C1438.11 1443.16 1440.98 1453.8 1439.57 1467.83ZM1374.49 1459.2H1430.03C1429.93 1451.33 1427.26 1445.17 1422.01 1440.73C1416.77 1436.19 1410.26 1433.92 1402.49 1433.92C1394.92 1433.92 1388.61 1436.14 1383.57 1440.58C1378.52 1445.02 1375.5 1451.23 1374.49 1459.2ZM1457.57 1426.2H1467.11L1467.71 1438.46C1469.93 1433.82 1473.21 1430.44 1477.55 1428.32C1481.89 1426.1 1486.53 1424.99 1491.47 1424.99C1497.73 1424.99 1503.38 1426.76 1508.43 1430.29L1503.73 1438.77C1499.9 1436.14 1495.61 1434.83 1490.87 1434.83C1484.31 1434.93 1478.81 1437.2 1474.37 1441.64C1469.93 1446.08 1467.71 1451.68 1467.71 1458.44V1500.97H1457.57V1426.2Z" fill="black"/>
</svg>
