<svg xmlns="http://www.w3.org/2000/svg" width="136" height="136" viewBox="0 0 136 136" version="1.1">
	<path
		d="M 16 62.227 L 16 108.453 24 100.500 L 32 92.547 32 62.273 L 32 32 62.273 32 L 92.547 32 100.500 24 L 108.453 16 62.227 16 L 16 16 16 62.227 M 52 66 L 52 80 66 80 L 80 80 80 66 L 80 52 66 52 L 52 52 52 66"
		stroke="none" fill="var(--laneDark)" fill-rule="evenodd" />
	<path
		d="M 109.731 33.768 L 100 43.536 100 71.768 L 100 100 71.731 100 L 43.462 100 33.500 110 L 23.538 120 71.769 120 L 120 120 120 72 C 120 45.600, 119.879 24, 119.731 24 C 119.583 24, 115.083 28.396, 109.731 33.768"
		stroke="none" fill="var(--lane)" fill-rule="evenodd" />
</svg>
