<svg xmlns="http://www.w3.org/2000/svg" width="136" height="136" viewBox="0 0 136 136" version="1.1">
	<path d="" stroke="none" fill="var(--laneDark)" fill-rule="evenodd" />
	<path
		d="M 36.024 12.216 C 36.011 12.611, 38.501 19.122, 41.558 26.687 C 49.436 46.185, 51.073 52.570, 51.635 66 L 52.116 77.500 48.826 71.500 C 44.339 63.318, 35.103 54.268, 25.521 48.665 C 21.132 46.099, 17.133 44, 16.634 44 C 16.135 44, 17.842 46.262, 20.428 49.027 C 26.822 55.863, 30.805 64.830, 33.199 77.781 C 34.289 83.677, 35.351 89.422, 35.559 90.549 C 35.767 91.676, 39.291 95.558, 43.390 99.176 C 47.489 102.794, 54.562 109.859, 59.106 114.877 C 63.651 119.895, 67.723 124, 68.156 124 C 68.589 124, 69.968 120.737, 71.221 116.750 C 74.565 106.113, 74.299 89.952, 70.577 77.500 C 67.165 66.087, 61.625 53.481, 54.606 41.160 C 48.557 30.541, 36.063 11.081, 36.024 12.216 M 89.727 26.251 C 84.443 34.088, 78.216 44.257, 75.889 48.849 L 71.659 57.199 73.279 61.349 C 74.170 63.632, 75.934 68.758, 77.200 72.741 C 78.465 76.723, 79.764 79.985, 80.086 79.991 C 81.130 80.007, 83.863 68.651, 84.982 59.649 C 86.240 49.525, 89.362 39.003, 95.665 23.644 C 98.116 17.673, 99.944 12.611, 99.728 12.394 C 99.512 12.178, 95.011 18.413, 89.727 26.251 M 113.457 47.378 C 110.699 49.236, 105.862 53.542, 102.709 56.947 C 92.886 67.558, 83.982 89.283, 84.014 102.564 L 84.029 108.500 92.514 99.889 C 99.192 93.112, 101.003 90.663, 101.013 88.389 C 101.039 82.614, 104.941 66.723, 107.870 60.465 C 109.520 56.939, 112.986 51.791, 115.572 49.027 C 121.062 43.157, 120.442 42.674, 113.457 47.378"
		stroke="none" fill="var(--laneDark)" fill-rule="evenodd" />
</svg>
