<svg xmlns="http://www.w3.org/2000/svg" width="136" height="136" viewBox="0 0 136 136" version="1.1"><path d="M 16 50.227 L 16 84.453 24 76.500 L 32 68.547 32 50.273 L 32 32 50.273 32 L 68.547 32 76.500 24 L 84.453 16 50.227 16 L 16 16 16 50.227 M 111.727 59.772 L 104 67.544 104 85.772 L 104 104 85.727 104 L 67.453 104 59.500 112 L 51.547 120 85.773 120 L 120 120 120 86 C 120 67.300, 119.877 52, 119.727 52 C 119.576 52, 115.976 55.497, 111.727 59.772" stroke="none" fill="var(--lane)" fill-rule="evenodd"/><path d="M 57.746 57.754 L 16 99.509 16 109.754 L 16 120 26.254 120 L 36.509 120 78.254 78.246 L 120 36.491 120 26.246 L 120 16 109.746 16 L 99.491 16 57.746 57.754" stroke="none" fill="var(--laneDark)" fill-rule="evenodd"/></svg>