<svg xmlns="http://www.w3.org/2000/svg" width="136" height="136" viewBox="0 0 136 136" version="1.1"><path d="" stroke="none" fill="var(--lane)" fill-rule="evenodd"/><path d="M 49.989 15.250 C 48.899 17.038, 48.006 18.964, 48.004 19.532 C 47.999 20.943, 66.817 43.500, 68 43.500 C 69.019 43.500, 88 21.044, 88 19.839 C 88 19.440, 87.056 17.514, 85.901 15.557 L 83.802 12 67.887 12 L 51.971 12 49.989 15.250 M -0 36.449 C -0 36.697, 2.868 38.945, 6.373 41.447 C 15.965 48.291, 23.289 51.316, 31.812 51.953 L 39.124 52.500 33.562 59.926 C 30.503 64.010, 28 67.611, 28 67.928 C 28 68.652, 47.907 76.453, 48.355 75.904 C 48.536 75.682, 50.416 69.300, 52.533 61.721 L 56.380 47.942 50.472 41.971 L 44.563 36 22.281 36 C 10.027 36, -0 36.202, -0 36.449 M 85.528 41.971 L 79.620 47.942 83.467 61.721 C 85.584 69.300, 87.464 75.682, 87.645 75.904 C 88.093 76.453, 108 68.652, 108 67.928 C 108 67.611, 105.497 64.010, 102.438 59.926 L 96.876 52.500 104.188 51.953 C 112.711 51.316, 120.035 48.291, 129.627 41.447 C 133.132 38.945, 136 36.697, 136 36.449 C 136 36.202, 125.973 36, 113.719 36 L 91.437 36 85.528 41.971 M 57.612 81.402 C 54.398 97.573, 51.933 111.276, 52.134 111.854 C 52.784 113.718, 67.380 124.068, 68.664 123.576 C 71.797 122.373, 84 112.388, 84 111.026 C 84.001 109.188, 72.828 52.675, 72.348 52.089 C 72.163 51.864, 71.110 52.496, 70.006 53.494 C 68.136 55.187, 67.876 55.198, 66.171 53.655 C 65.165 52.745, 64.143 52, 63.900 52 C 63.656 52, 60.827 65.231, 57.612 81.402" stroke="none" fill="var(--laneDark)" fill-rule="evenodd"/></svg>
