<svg xmlns="http://www.w3.org/2000/svg" width="128" height="128" viewBox="0 0 128 128" version="1.1">
    <path d="M 105.241 33.257 L 98.032 40.515 97.766 69.007 L 97.500 97.500 68.960 97.765 L 40.420 98.030 32.985 105.515 L 25.550 113 69.275 113 L 113 113 113 69.500 C 113 45.575, 112.876 26, 112.725 26 C 112.574 26, 109.206 29.266, 105.241 33.257 M 52.667 52.667 C 52.300 53.033, 52 59.108, 52 66.167 L 52 79 65.500 79 L 79 79 79 65.500 L 79 52 66.167 52 C 59.108 52, 53.033 52.300, 52.667 52.667" stroke="none" fill="var(--laneDark)" fill-rule="evenodd"/>
    <path d="M 15 60.730 L 15 106.460 24.500 97 L 34 87.540 34 60.770 L 34 34 60.770 34 L 87.540 34 97 24.500 L 106.460 15 60.730 15 L 15 15 15 60.730" stroke="none" fill="var(--lane)" fill-rule="evenodd"/>
    </svg>